<svg style="position: absolute; width: 0; height: 0; overflow: hidden;" version="1.1" xmlns="http://www.w3.org/2000/svg" xmlns:xlink="http://www.w3.org/1999/xlink">
<defs>
<symbol id="icon-user" viewBox="0 0 20 28">
<title>user</title>
<path d="M20 21.859c0 2.281-1.5 4.141-3.328 4.141h-13.344c-1.828 0-3.328-1.859-3.328-4.141 0-4.109 1.016-8.859 5.109-8.859 1.266 1.234 2.984 2 4.891 2s3.625-0.766 4.891-2c4.094 0 5.109 4.75 5.109 8.859zM16 8c0 3.313-2.688 6-6 6s-6-2.688-6-6 2.688-6 6-6 6 2.688 6 6z"></path>
</symbol>
<symbol id="icon-home" viewBox="0 0 26 28">
<title>home</title>
<path d="M22 15.5v7.5c0 0.547-0.453 1-1 1h-6v-6h-4v6h-6c-0.547 0-1-0.453-1-1v-7.5c0-0.031 0.016-0.063 0.016-0.094l8.984-7.406 8.984 7.406c0.016 0.031 0.016 0.063 0.016 0.094zM25.484 14.422l-0.969 1.156c-0.078 0.094-0.203 0.156-0.328 0.172h-0.047c-0.125 0-0.234-0.031-0.328-0.109l-10.813-9.016-10.813 9.016c-0.109 0.078-0.234 0.125-0.375 0.109-0.125-0.016-0.25-0.078-0.328-0.172l-0.969-1.156c-0.172-0.203-0.141-0.531 0.063-0.703l11.234-9.359c0.656-0.547 1.719-0.547 2.375 0l3.813 3.187v-3.047c0-0.281 0.219-0.5 0.5-0.5h3c0.281 0 0.5 0.219 0.5 0.5v6.375l3.422 2.844c0.203 0.172 0.234 0.5 0.063 0.703z"></path>
</symbol>
<symbol id="icon-book" viewBox="0 0 26 28">
<title>book</title>
<path d="M25.609 7.469c0.391 0.562 0.5 1.297 0.281 2.016l-4.297 14.156c-0.391 1.328-1.766 2.359-3.109 2.359h-14.422c-1.594 0-3.297-1.266-3.875-2.891-0.25-0.703-0.25-1.391-0.031-1.984 0.031-0.313 0.094-0.625 0.109-1 0.016-0.25-0.125-0.453-0.094-0.641 0.063-0.375 0.391-0.641 0.641-1.062 0.469-0.781 1-2.047 1.172-2.859 0.078-0.297-0.078-0.641 0-0.906 0.078-0.297 0.375-0.516 0.531-0.797 0.422-0.719 0.969-2.109 1.047-2.844 0.031-0.328-0.125-0.688-0.031-0.938 0.109-0.359 0.453-0.516 0.688-0.828 0.375-0.516 1-2 1.094-2.828 0.031-0.266-0.125-0.531-0.078-0.812 0.063-0.297 0.438-0.609 0.688-0.969 0.656-0.969 0.781-3.109 2.766-2.547l-0.016 0.047c0.266-0.063 0.531-0.141 0.797-0.141h11.891c0.734 0 1.391 0.328 1.781 0.875 0.406 0.562 0.5 1.297 0.281 2.031l-4.281 14.156c-0.734 2.406-1.141 2.938-3.125 2.938h-13.578c-0.203 0-0.453 0.047-0.594 0.234-0.125 0.187-0.141 0.328-0.016 0.672 0.313 0.906 1.391 1.094 2.25 1.094h14.422c0.578 0 1.25-0.328 1.422-0.891l4.688-15.422c0.094-0.297 0.094-0.609 0.078-0.891 0.359 0.141 0.688 0.359 0.922 0.672zM8.984 7.5c-0.094 0.281 0.063 0.5 0.344 0.5h9.5c0.266 0 0.562-0.219 0.656-0.5l0.328-1c0.094-0.281-0.063-0.5-0.344-0.5h-9.5c-0.266 0-0.562 0.219-0.656 0.5zM7.688 11.5c-0.094 0.281 0.063 0.5 0.344 0.5h9.5c0.266 0 0.562-0.219 0.656-0.5l0.328-1c0.094-0.281-0.063-0.5-0.344-0.5h-9.5c-0.266 0-0.562 0.219-0.656 0.5z"></path>
</symbol>
<symbol id="icon-camera" viewBox="0 0 30 28">
<title>camera</title>
<path d="M15 10.5c2.484 0 4.5 2.016 4.5 4.5s-2.016 4.5-4.5 4.5-4.5-2.016-4.5-4.5 2.016-4.5 4.5-4.5zM26 4c2.203 0 4 1.797 4 4v14c0 2.203-1.797 4-4 4h-22c-2.203 0-4-1.797-4-4v-14c0-2.203 1.797-4 4-4h3.5l0.797-2.125c0.391-1.031 1.609-1.875 2.703-1.875h8c1.094 0 2.312 0.844 2.703 1.875l0.797 2.125h3.5zM15 22c3.859 0 7-3.141 7-7s-3.141-7-7-7-7 3.141-7 7 3.141 7 7 7z"></path>
</symbol>
<symbol id="icon-arrow-left" viewBox="0 0 25 28">
<title>arrow-left</title>
<path d="M24 14v2c0 1.062-0.703 2-1.828 2h-11l4.578 4.594c0.375 0.359 0.594 0.875 0.594 1.406s-0.219 1.047-0.594 1.406l-1.172 1.188c-0.359 0.359-0.875 0.578-1.406 0.578s-1.047-0.219-1.422-0.578l-10.172-10.187c-0.359-0.359-0.578-0.875-0.578-1.406s0.219-1.047 0.578-1.422l10.172-10.156c0.375-0.375 0.891-0.594 1.422-0.594s1.031 0.219 1.406 0.594l1.172 1.156c0.375 0.375 0.594 0.891 0.594 1.422s-0.219 1.047-0.594 1.422l-4.578 4.578h11c1.125 0 1.828 0.938 1.828 2z"></path>
</symbol>
<symbol id="icon-flask" viewBox="0 0 26 28">
<title>flask</title>
<path d="M23.859 22.625c1.172 1.859 0.344 3.375-1.859 3.375h-18c-2.203 0-3.031-1.516-1.859-3.375l7.859-12.391v-6.234h-1c-0.547 0-1-0.453-1-1s0.453-1 1-1h8c0.547 0 1 0.453 1 1s-0.453 1-1 1h-1v6.234zM11.688 11.297l-4.25 6.703h11.125l-4.25-6.703-0.313-0.484v-6.813h-2v6.813z"></path>
</symbol>
<symbol id="icon-laptop" viewBox="0 0 30 28">
<title>laptop</title>
<path d="M6.5 20c-1.375 0-2.5-1.125-2.5-2.5v-11c0-1.375 1.125-2.5 2.5-2.5h17c1.375 0 2.5 1.125 2.5 2.5v11c0 1.375-1.125 2.5-2.5 2.5h-17zM6 6.5v11c0 0.266 0.234 0.5 0.5 0.5h17c0.266 0 0.5-0.234 0.5-0.5v-11c0-0.266-0.234-0.5-0.5-0.5h-17c-0.266 0-0.5 0.234-0.5 0.5zM27.5 21h2.5v1.5c0 0.828-1.125 1.5-2.5 1.5h-25c-1.375 0-2.5-0.672-2.5-1.5v-1.5h27.5zM16.25 22.5c0.141 0 0.25-0.109 0.25-0.25s-0.109-0.25-0.25-0.25h-2.5c-0.141 0-0.25 0.109-0.25 0.25s0.109 0.25 0.25 0.25h2.5z"></path>
</symbol>
<symbol id="icon-brush" viewBox="0 0 28 28">
<title>paint-brush</title>
<path d="M25.234 0c1.422 0 2.734 1.062 2.734 2.547 0 0.828-0.328 1.625-0.703 2.359-1.219 2.312-5.313 9.953-7.266 11.75-0.953 0.891-2.078 1.422-3.406 1.422-2.641 0-4.797-2.25-4.797-4.875 0-1.25 0.516-2.469 1.437-3.313l9.969-9.047c0.547-0.5 1.266-0.844 2.031-0.844zM11.031 16.156c0.812 1.578 2.297 2.766 4.016 3.219l0.016 1.109c0.094 4.453-3 7.516-7.469 7.516-5.297 0-7.594-4.219-7.594-9.016 0.578 0.391 2.594 2 3.25 2 0.391 0 0.719-0.219 0.859-0.578 1.328-3.469 3.406-4.094 6.922-4.25z"></path>
</symbol>
<symbol id="icon-instagram" viewBox="0 0 24 28">
<title>instagram</title>
<path d="M16 14c0-2.203-1.797-4-4-4s-4 1.797-4 4 1.797 4 4 4 4-1.797 4-4zM18.156 14c0 3.406-2.75 6.156-6.156 6.156s-6.156-2.75-6.156-6.156 2.75-6.156 6.156-6.156 6.156 2.75 6.156 6.156zM19.844 7.594c0 0.797-0.641 1.437-1.437 1.437s-1.437-0.641-1.437-1.437 0.641-1.437 1.437-1.437 1.437 0.641 1.437 1.437zM12 4.156c-1.75 0-5.5-0.141-7.078 0.484-0.547 0.219-0.953 0.484-1.375 0.906s-0.688 0.828-0.906 1.375c-0.625 1.578-0.484 5.328-0.484 7.078s-0.141 5.5 0.484 7.078c0.219 0.547 0.484 0.953 0.906 1.375s0.828 0.688 1.375 0.906c1.578 0.625 5.328 0.484 7.078 0.484s5.5 0.141 7.078-0.484c0.547-0.219 0.953-0.484 1.375-0.906s0.688-0.828 0.906-1.375c0.625-1.578 0.484-5.328 0.484-7.078s0.141-5.5-0.484-7.078c-0.219-0.547-0.484-0.953-0.906-1.375s-0.828-0.688-1.375-0.906c-1.578-0.625-5.328-0.484-7.078-0.484zM24 14c0 1.656 0.016 3.297-0.078 4.953-0.094 1.922-0.531 3.625-1.937 5.031s-3.109 1.844-5.031 1.937c-1.656 0.094-3.297 0.078-4.953 0.078s-3.297 0.016-4.953-0.078c-1.922-0.094-3.625-0.531-5.031-1.937s-1.844-3.109-1.937-5.031c-0.094-1.656-0.078-3.297-0.078-4.953s-0.016-3.297 0.078-4.953c0.094-1.922 0.531-3.625 1.937-5.031s3.109-1.844 5.031-1.937c1.656-0.094 3.297-0.078 4.953-0.078s3.297-0.016 4.953 0.078c1.922 0.094 3.625 0.531 5.031 1.937s1.844 3.109 1.937 5.031c0.094 1.656 0.078 3.297 0.078 4.953z"></path>
</symbol>
<symbol id="icon-linkedin" viewBox="0 0 24 28">
<title>linkedin</title>
<path d="M5.453 9.766v15.484h-5.156v-15.484h5.156zM5.781 4.984c0.016 1.484-1.109 2.672-2.906 2.672v0h-0.031c-1.734 0-2.844-1.188-2.844-2.672 0-1.516 1.156-2.672 2.906-2.672 1.766 0 2.859 1.156 2.875 2.672zM24 16.375v8.875h-5.141v-8.281c0-2.078-0.75-3.5-2.609-3.5-1.422 0-2.266 0.953-2.641 1.875-0.125 0.344-0.172 0.797-0.172 1.266v8.641h-5.141c0.063-14.031 0-15.484 0-15.484h5.141v2.25h-0.031c0.672-1.062 1.891-2.609 4.672-2.609 3.391 0 5.922 2.219 5.922 6.969z"></path>
</symbol>
<symbol id="icon-twitter" viewBox="0 0 26 28">
<title>twitter</title>
<path d="M25.312 6.375c-0.688 1-1.547 1.891-2.531 2.609 0.016 0.219 0.016 0.438 0.016 0.656 0 6.672-5.078 14.359-14.359 14.359-2.859 0-5.516-0.828-7.75-2.266 0.406 0.047 0.797 0.063 1.219 0.063 2.359 0 4.531-0.797 6.266-2.156-2.219-0.047-4.078-1.5-4.719-3.5 0.313 0.047 0.625 0.078 0.953 0.078 0.453 0 0.906-0.063 1.328-0.172-2.312-0.469-4.047-2.5-4.047-4.953v-0.063c0.672 0.375 1.453 0.609 2.281 0.641-1.359-0.906-2.25-2.453-2.25-4.203 0-0.938 0.25-1.797 0.688-2.547 2.484 3.062 6.219 5.063 10.406 5.281-0.078-0.375-0.125-0.766-0.125-1.156 0-2.781 2.25-5.047 5.047-5.047 1.453 0 2.766 0.609 3.687 1.594 1.141-0.219 2.234-0.641 3.203-1.219-0.375 1.172-1.172 2.156-2.219 2.781 1.016-0.109 2-0.391 2.906-0.781z"></path>
</symbol>
<symbol id="icon-github" viewBox="0 0 24 28">
<title>github</title>
<path d="M12 2c6.625 0 12 5.375 12 12 0 5.297-3.437 9.797-8.203 11.391-0.609 0.109-0.828-0.266-0.828-0.578 0-0.391 0.016-1.687 0.016-3.297 0-1.125-0.375-1.844-0.812-2.219 2.672-0.297 5.484-1.313 5.484-5.922 0-1.313-0.469-2.375-1.234-3.219 0.125-0.313 0.531-1.531-0.125-3.187-1-0.313-3.297 1.234-3.297 1.234-0.953-0.266-1.984-0.406-3-0.406s-2.047 0.141-3 0.406c0 0-2.297-1.547-3.297-1.234-0.656 1.656-0.25 2.875-0.125 3.187-0.766 0.844-1.234 1.906-1.234 3.219 0 4.594 2.797 5.625 5.469 5.922-0.344 0.313-0.656 0.844-0.766 1.609-0.688 0.313-2.438 0.844-3.484-1-0.656-1.141-1.844-1.234-1.844-1.234-1.172-0.016-0.078 0.734-0.078 0.734 0.781 0.359 1.328 1.75 1.328 1.75 0.703 2.141 4.047 1.422 4.047 1.422 0 1 0.016 1.937 0.016 2.234 0 0.313-0.219 0.688-0.828 0.578-4.766-1.594-8.203-6.094-8.203-11.391 0-6.625 5.375-12 12-12zM4.547 19.234c0.031-0.063-0.016-0.141-0.109-0.187-0.094-0.031-0.172-0.016-0.203 0.031-0.031 0.063 0.016 0.141 0.109 0.187 0.078 0.047 0.172 0.031 0.203-0.031zM5.031 19.766c0.063-0.047 0.047-0.156-0.031-0.25-0.078-0.078-0.187-0.109-0.25-0.047-0.063 0.047-0.047 0.156 0.031 0.25 0.078 0.078 0.187 0.109 0.25 0.047zM5.5 20.469c0.078-0.063 0.078-0.187 0-0.297-0.063-0.109-0.187-0.156-0.266-0.094-0.078 0.047-0.078 0.172 0 0.281s0.203 0.156 0.266 0.109zM6.156 21.125c0.063-0.063 0.031-0.203-0.063-0.297-0.109-0.109-0.25-0.125-0.313-0.047-0.078 0.063-0.047 0.203 0.063 0.297 0.109 0.109 0.25 0.125 0.313 0.047zM7.047 21.516c0.031-0.094-0.063-0.203-0.203-0.25-0.125-0.031-0.266 0.016-0.297 0.109s0.063 0.203 0.203 0.234c0.125 0.047 0.266 0 0.297-0.094zM8.031 21.594c0-0.109-0.125-0.187-0.266-0.172-0.141 0-0.25 0.078-0.25 0.172 0 0.109 0.109 0.187 0.266 0.172 0.141 0 0.25-0.078 0.25-0.172zM8.937 21.438c-0.016-0.094-0.141-0.156-0.281-0.141-0.141 0.031-0.234 0.125-0.219 0.234 0.016 0.094 0.141 0.156 0.281 0.125s0.234-0.125 0.219-0.219z"></path>
</symbol>
</defs>
</svg>
